<svg width="49" height="48" viewBox="0 0 49 48" fill="none" xmlns="http://www.w3.org/2000/svg">
<g clip-path="url(#clip0_0_439)">
<g clip-path="url(#clip1_0_439)">
<path d="M24.8406 22.8022C29.1448 22.8022 32.4925 19.3069 32.4925 15.0171C32.4925 10.7273 28.9854 7.39087 24.6812 7.39087C20.377 7.39087 17.0293 10.8862 17.0293 15.0171C17.0293 19.3069 20.5364 22.8022 24.8406 22.8022ZM24.6812 10.5685C24.8406 10.5685 24.8406 10.5685 24.6812 10.5685C27.2318 10.5685 29.3042 12.6339 29.3042 15.176C29.3042 17.7181 27.2318 19.6246 24.6812 19.6246C22.1305 19.6246 20.2176 17.5592 20.2176 15.176C20.2176 12.6339 22.2899 10.5685 24.6812 10.5685Z" fill="#00A0C1"/>
<path d="M48.4339 21.8487C45.405 19.1477 41.4197 17.7178 37.2749 17.8767H35.9996C35.6808 19.1477 35.2025 20.2599 34.5648 21.2132C35.5213 21.0543 36.3184 21.0543 37.2749 21.0543C40.3038 20.8954 43.3327 21.8487 45.7239 23.5964V35.0357H48.9122V22.3253L48.4339 21.8487Z" fill="#00A0C1"/>
<path d="M33.6084 7.70826C34.4055 5.8017 36.6373 4.84842 38.7097 5.64282C40.6226 6.43722 41.5791 8.66154 40.782 10.727C40.1444 12.1569 38.7097 13.1102 37.2749 13.1102C36.9561 13.1102 36.4779 13.1102 36.159 12.9513C36.3184 13.7457 36.3184 14.5401 36.3184 15.1756V16.1289C36.6373 16.1289 36.9561 16.2878 37.2749 16.2878C41.2603 16.2878 44.4486 13.1102 44.4486 9.29706C44.4486 5.32506 41.2603 2.14746 37.4343 2.14746C34.8837 2.14746 32.6519 3.4185 31.3766 5.64282C32.1737 6.11946 32.9707 6.75498 33.6084 7.70826Z" fill="#00A0C1"/>
<path d="M15.4351 21.3721C14.7975 20.4189 14.3192 19.3067 14.0004 18.0357H12.7251C8.58031 17.8768 4.59495 19.3067 1.56607 21.8488L1.08783 22.3254V35.0358H4.27612V23.5965C6.82675 21.8488 9.69621 20.8955 12.7251 21.0544C13.6816 21.0544 14.6381 21.2133 15.4351 21.3721Z" fill="#00A0C1"/>
<path d="M12.7251 16.1293C13.044 16.1293 13.3628 16.1293 13.6816 15.9704V15.0171C13.6816 14.2227 13.6816 13.4283 13.841 12.7928C13.5222 12.9517 13.044 12.9517 12.7251 12.9517C10.6527 12.9517 8.89917 11.204 8.89917 9.13856C8.89917 7.07312 10.6527 5.32544 12.7251 5.32544C14.3193 5.32544 15.754 6.27872 16.3917 7.70864C17.0293 6.91424 17.9858 6.11984 18.7829 5.48432C16.7105 2.14784 12.4063 1.03568 9.05859 3.10112C5.71088 5.16656 4.59498 9.45632 6.66737 12.7928C7.94269 14.8582 10.1745 16.1293 12.7251 16.1293Z" fill="#00A0C1"/>
<path d="M37.9126 31.3815L37.5938 30.9049C34.4055 27.4095 29.9419 25.3441 25.1594 25.5029C20.377 25.3441 15.754 27.4095 12.5657 30.9049L12.2469 31.3815V43.4564C12.2469 44.8863 13.3628 46.1573 14.9569 46.1573H35.362C36.7967 46.1573 38.072 44.8863 38.072 43.4564V31.3815H37.9126ZM34.7243 42.9797H15.4351V32.4936C17.9858 29.9516 21.4929 28.6805 25.1594 28.6805C28.6666 28.5217 32.1737 29.9516 34.7243 32.4936V42.9797Z" fill="#00A0C1"/>
</g>
</g>
<defs>
<clipPath id="clip0_0_439">
<rect width="48" height="48" fill="white" transform="translate(0.5)"/>
</clipPath>
<clipPath id="clip1_0_439">
<rect width="48" height="44.2105" fill="white" transform="translate(1 2)"/>
</clipPath>
</defs>
</svg>
